<svg width="25" height="25" viewBox="0 0 25 25" fill="none" xmlns="http://www.w3.org/2000/svg">
<path d="M12.2951 2.8378C15.4847 2.8378 15.9197 2.8378 17.2245 2.8378C18.3843 2.8378 18.9643 3.12776 19.3992 3.27275C19.9791 3.56271 20.4141 3.70769 20.849 4.14263C21.284 4.57758 21.5739 5.01252 21.7189 5.59244C21.8639 6.02739 22.0089 6.60731 22.1539 7.76716C22.1539 9.07199 22.1539 9.36195 22.1539 12.6965C22.1539 16.0311 22.1539 16.321 22.1539 17.6259C22.1539 18.7857 21.8639 19.3656 21.7189 19.8006C21.429 20.3805 21.284 20.8155 20.849 21.2504C20.4141 21.6853 19.9791 21.9753 19.3992 22.1203C18.9643 22.2653 18.3843 22.4102 17.2245 22.5552C15.9197 22.5552 15.6297 22.5552 12.2951 22.5552C8.96058 22.5552 8.67062 22.5552 7.36579 22.5552C6.20594 22.5552 5.62602 22.2653 5.19108 22.1203C4.61115 21.8303 4.17621 21.6853 3.74126 21.2504C3.30632 20.8155 3.01636 20.3805 2.87138 19.8006C2.7264 19.3656 2.58142 18.7857 2.43643 17.6259C2.43643 16.321 2.43643 16.0311 2.43643 12.6965C2.43643 9.36195 2.43643 9.07199 2.43643 7.76716C2.43643 6.60731 2.7264 6.02739 2.87138 5.59244C3.16134 5.01252 3.30632 4.57758 3.74126 4.14263C4.17621 3.70769 4.61115 3.41773 5.19108 3.27275C5.62602 3.12776 6.20594 2.98278 7.36579 2.8378C8.67062 2.8378 9.10556 2.8378 12.2951 2.8378ZM12.2951 0.663086C8.96058 0.663086 8.67062 0.663086 7.36579 0.663086C6.06096 0.663086 5.19108 0.953049 4.46617 1.24301C3.74126 1.53297 3.01636 1.96792 2.29145 2.69282C1.56655 3.41773 1.27659 3.99765 0.841644 4.86754C0.551682 5.59244 0.4067 6.46233 0.261719 7.76716C0.261719 9.07199 0.261719 9.50693 0.261719 12.6965C0.261719 16.0311 0.261719 16.321 0.261719 17.6259C0.261719 18.9307 0.551682 19.8006 0.841644 20.5255C1.13161 21.2504 1.56655 21.9753 2.29145 22.7002C3.01636 23.4251 3.59628 23.7151 4.46617 24.15C5.19108 24.44 6.06096 24.585 7.36579 24.7299C8.67062 24.7299 9.10556 24.7299 12.2951 24.7299C15.4847 24.7299 15.9197 24.7299 17.2245 24.7299C18.5293 24.7299 19.3992 24.44 20.1241 24.15C20.849 23.8601 21.5739 23.4251 22.2988 22.7002C23.0237 21.9753 23.3137 21.3954 23.7486 20.5255C24.0386 19.8006 24.1836 18.9307 24.3286 17.6259C24.3286 16.321 24.3286 15.8861 24.3286 12.6965C24.3286 9.50693 24.3286 9.07199 24.3286 7.76716C24.3286 6.46233 24.0386 5.59244 23.7486 4.86754C23.4587 4.14263 23.0237 3.41773 22.2988 2.69282C21.5739 1.96792 20.994 1.67795 20.1241 1.24301C19.3992 0.953049 18.5293 0.808067 17.2245 0.663086C15.9197 0.663086 15.6297 0.663086 12.2951 0.663086Z" fill="white"/>
<path d="M12.2951 6.46233C8.8156 6.46233 6.06096 9.21697 6.06096 12.6965C6.06096 16.1761 8.8156 18.9307 12.2951 18.9307C15.7747 18.9307 18.5293 16.1761 18.5293 12.6965C18.5293 9.21697 15.7747 6.46233 12.2951 6.46233ZM12.2951 16.756C10.1204 16.756 8.23568 15.0162 8.23568 12.6965C8.23568 10.5218 9.97545 8.63704 12.2951 8.63704C14.4699 8.63704 16.3546 10.3768 16.3546 12.6965C16.3546 14.8712 14.4699 16.756 12.2951 16.756Z" fill="white"/>
<path d="M18.6743 7.76716C19.475 7.76716 20.1241 7.11806 20.1241 6.31735C20.1241 5.51664 19.475 4.86754 18.6743 4.86754C17.8736 4.86754 17.2245 5.51664 17.2245 6.31735C17.2245 7.11806 17.8736 7.76716 18.6743 7.76716Z" fill="white"/>
</svg>
