<svg width="25" height="22" viewBox="0 0 25 22" fill="none" xmlns="http://www.w3.org/2000/svg">
<path d="M1.65447 9.20953C8.11485 6.19054 12.4228 4.20024 14.5783 3.23862C20.7326 0.493011 22.0114 0.0160695 22.845 0.000152682C23.0283 -0.00314319 23.4382 0.0455874 23.7037 0.276673C23.9279 0.471798 23.9896 0.735383 24.0191 0.920383C24.0486 1.10538 24.0854 1.52682 24.0562 1.85611C23.7226 5.61464 22.2796 14.7356 21.5454 18.9452C21.2348 20.7265 20.6231 21.3237 20.0309 21.3822C18.744 21.5092 17.7667 20.4699 16.5203 19.5936C14.5698 18.2222 13.468 17.3685 11.5747 16.0303C9.38671 14.4838 10.8051 13.6339 12.052 12.2447C12.3783 11.8812 18.0486 6.34931 18.1583 5.84748C18.1721 5.78472 18.1848 5.55077 18.0552 5.42724C17.9256 5.30371 17.7344 5.34595 17.5964 5.37955C17.4008 5.42717 14.2849 7.63614 8.24875 12.0065C7.36432 12.6579 6.56323 12.9752 5.84548 12.9586C5.05421 12.9403 3.53214 12.4787 2.40064 12.0842C1.01281 11.6004 -0.0902181 11.3445 0.00583042 10.5228C0.0558584 10.0947 0.605405 9.65699 1.65447 9.20953Z" fill="white"/>
</svg>
