<svg width="19" height="19" viewBox="0 0 19 19" fill="none" xmlns="http://www.w3.org/2000/svg">
<path d="M17.3779 0.75L15.6279 2.5M15.6279 2.5L18.2529 5.125L15.1904 8.1875L12.5654 5.5625M15.6279 2.5L12.5654 5.5625M8.96918 9.15875C9.42097 9.60453 9.78013 10.1353 10.026 10.7204C10.2718 11.3056 10.3994 11.9336 10.4016 12.5683C10.4037 13.203 10.2803 13.8318 10.0384 14.4186C9.79645 15.0054 9.44085 15.5386 8.99205 15.9874C8.54325 16.4362 8.01011 16.7918 7.42332 17.0337C6.83652 17.2756 6.20768 17.399 5.57298 17.3969C4.93828 17.3948 4.31028 17.2671 3.72512 17.0213C3.13996 16.7755 2.60921 16.4163 2.16343 15.9645C1.28679 15.0569 0.801717 13.8412 0.812682 12.5794C0.823647 11.3176 1.32977 10.1105 2.22205 9.21825C3.11433 8.32597 4.32136 7.81985 5.58318 7.80888C6.84501 7.79792 8.06065 8.28299 8.9683 9.15963L8.96918 9.15875ZM8.96918 9.15875L12.5654 5.5625" stroke="#0061A4" stroke-width="1.5" stroke-linecap="round" stroke-linejoin="round"/>
</svg>
