<svg width="34" height="19" viewBox="0 0 34 19" fill="none" xmlns="http://www.w3.org/2000/svg">
<path d="M1.68164 1.51514H6.21728C6.77439 1.51514 7.32384 1.6407 7.82211 1.8818L11.6895 3.75301C12.1878 3.99411 12.7372 4.11949 13.2943 4.11949H15.269C17.1788 4.11949 18.7271 5.61779 18.7271 7.46589C18.7271 7.54052 18.676 7.60624 18.6017 7.62669L13.7893 8.95737C12.9261 9.19601 12.0017 9.11286 11.1987 8.72423L7.06442 6.72404M18.7271 6.24999L27.4256 3.57745C28.9676 3.09695 30.6345 3.66665 31.6004 5.00434C32.2989 5.97139 32.0144 7.35642 30.997 7.94354L16.7629 16.1562C15.8576 16.6786 14.7895 16.806 13.7937 16.5106L1.68164 12.9165" stroke="#48484F" stroke-width="2.84091" stroke-linecap="round" stroke-linejoin="round"/>
</svg>
