<svg width="22" height="14" viewBox="0 0 22 14" fill="none" xmlns="http://www.w3.org/2000/svg">
<path d="M14.4657 1.68176H6.88997C5.56842 1.68176 4.90764 1.68176 4.36995 1.84487C3.15935 2.2121 2.21198 3.15947 1.84475 4.37008C1.68164 4.90777 1.68164 5.56854 1.68164 6.8901C1.68164 8.21165 1.68164 8.87243 1.84475 9.41011C2.21198 10.6207 3.15935 11.5681 4.36995 11.9353C4.90764 12.0984 5.56842 12.0984 6.88997 12.0984H14.4657C15.7873 12.0984 16.4481 12.0984 16.9858 11.9353C18.1964 11.5681 19.1438 10.6207 19.511 9.41011C19.6741 8.87243 19.6741 8.21165 19.6741 6.8901C19.6741 5.56854 19.6741 4.90777 19.511 4.37008C19.1438 3.15947 18.1964 2.2121 16.9858 1.84487C16.4481 1.68176 15.7873 1.68176 14.4657 1.68176Z" stroke="#48484F" stroke-width="2.84091" stroke-linejoin="round"/>
</svg>
