<svg width="15" height="15" viewBox="0 0 15 15" fill="none" xmlns="http://www.w3.org/2000/svg">
<path d="M5.04372 12.6097C5.58141 12.7727 6.24221 12.7727 7.5638 12.7727C8.88539 12.7727 9.54619 12.7727 10.0839 12.6097C11.2945 12.2424 12.2418 11.2951 12.6091 10.0845C12.7721 9.5468 12.7721 8.886 12.7721 7.56441C12.7721 6.24282 12.7721 5.58202 12.6091 5.04434C12.2418 3.83373 11.2945 2.88638 10.0839 2.51915C9.54619 2.35608 8.88539 2.35608 7.5638 2.35608C6.24221 2.35608 5.58141 2.35608 5.04372 2.51915C3.83312 2.88638 2.88577 3.83373 2.51854 5.04434C2.35547 5.58202 2.35547 6.24282 2.35547 7.56441C2.35547 8.886 2.35547 9.5468 2.51854 10.0845C2.88577 11.2951 3.83312 12.2424 5.04372 12.6097Z" stroke="#48484F" stroke-width="2.84091" stroke-linejoin="round"/>
</svg>
