<svg width="25" height="25" viewBox="0 0 25 25" fill="none" xmlns="http://www.w3.org/2000/svg">
<path fill-rule="evenodd" clip-rule="evenodd" d="M21.2557 4.1227C18.9994 1.86643 15.991 0.663086 12.8323 0.663086C6.21387 0.663086 0.798828 6.07813 0.798828 12.6965C0.798828 14.8024 1.40051 16.9082 2.45343 18.7132L0.798828 24.7299L7.1164 23.0753C8.92141 23.9778 10.8768 24.5795 12.8323 24.5795C19.4506 24.5795 24.8657 19.1645 24.8657 12.5461C24.8657 9.38732 23.5119 6.37896 21.2557 4.1227ZM12.8323 22.6241C11.0272 22.6241 9.22224 22.1728 7.71806 21.2703L7.4172 21.1199L3.65676 22.1728L4.7097 18.5628L4.40885 18.1116C3.35592 16.457 2.90467 14.6519 2.90467 12.8469C2.90467 7.43189 7.41721 2.91935 12.8323 2.91935C15.5398 2.91935 17.9465 3.97228 19.9019 5.77729C21.8573 7.73272 22.7598 10.1394 22.7598 12.8469C22.7598 18.1116 18.3977 22.6241 12.8323 22.6241ZM18.2473 15.1032C17.9465 14.9528 16.4423 14.2007 16.1415 14.2007C15.8406 14.0503 15.6902 14.0503 15.5398 14.3511C15.3893 14.6519 14.7877 15.2536 14.6373 15.5545C14.4869 15.7049 14.3364 15.7049 14.0356 15.7049C13.7347 15.5545 12.8323 15.2536 11.6289 14.2007C10.7264 13.4486 10.1247 12.3957 9.97433 12.0948C9.82391 11.794 9.97433 11.6436 10.1248 11.4932C10.2752 11.3428 10.4256 11.1923 10.576 11.0419C10.7264 10.8915 10.7264 10.7411 10.8768 10.5907C11.0273 10.4402 10.8768 10.2898 10.8768 10.1394C10.8768 9.98899 10.2752 8.48481 9.97433 7.88314C9.82391 7.43189 9.52308 7.43189 9.37266 7.43189C9.22225 7.43189 9.07179 7.43189 8.77095 7.43189C8.62054 7.43189 8.3197 7.43189 8.01887 7.73272C7.71803 8.03356 6.96597 8.78565 6.96597 10.2898C6.96597 11.794 8.01887 13.1478 8.16929 13.4486C8.31971 13.599 10.2751 16.7578 13.2835 17.9611C15.8406 19.0141 16.2919 18.7132 16.8936 18.7132C17.4952 18.7132 18.6985 17.9611 18.849 17.3595C19.1498 16.6074 19.1498 16.0057 18.9994 16.0057C18.849 15.2536 18.5481 15.2536 18.2473 15.1032Z" fill="white"/>
</svg>
